<svg width="304" height="72" viewBox="0 0 304 72" fill="none" xmlns="http://www.w3.org/2000/svg">
<path d="M102.677 36.0002C102.677 55.5125 86.7934 71.3304 67.1999 71.3304V57.0844C78.8928 57.0844 88.3718 47.6447 88.3718 36.0002C88.3718 24.3557 78.8928 14.916 67.1999 14.916C55.507 14.916 46.028 24.3557 46.028 36.0002H31.7227C31.7227 16.4878 47.6064 0.669922 67.1999 0.669922C86.7934 0.669922 102.677 16.4878 102.677 36.0002Z" fill="black"/>
<path fill-rule="evenodd" clip-rule="evenodd" d="M154.133 14.902C154.133 14.902 152.85 14.9505 152.175 14.9165L150.172 14.902C145.386 15.0235 141.651 16.5017 138.967 19.3366C136.078 22.2985 134.633 26.7836 134.633 32.7919V69.6036H118.7V30.7609C118.7 23.9063 119.932 18.3211 122.397 14.0053C124.861 9.60479 128.26 6.34675 132.594 4.23113C136.843 2.11552 141.686 1.05772 147.125 1.05772L152.175 1.05786C152.137 1.05317 153.598 1.05466 155.091 1.05618C155.841 1.05695 156.6 1.05772 157.18 1.05772C162.619 1.05772 167.462 2.11552 171.711 4.23113C176.045 6.34675 179.444 9.60479 181.908 14.0053C184.373 18.3211 185.605 23.9063 185.605 30.7609V69.6036H169.672V32.7919C169.672 26.7836 168.227 22.2985 165.338 19.3366C162.654 16.5017 158.919 15.0235 154.133 14.902ZM255.343 66.0493C260.952 69.0112 267.325 70.4921 274.463 70.4921C281.091 70.4921 286.912 69.1381 291.926 66.4301C297.024 63.6375 300.891 59.7025 303.525 54.625L291.289 47.5166C289.249 50.7323 286.742 53.1018 283.768 54.625C280.879 56.1483 277.735 56.9099 274.336 56.9099C270.427 56.9099 266.9 56.0636 263.756 54.3711C260.612 52.6787 258.148 50.2669 256.363 47.1357C254.579 43.92 253.686 40.1119 253.686 35.7114C253.686 31.311 254.579 27.5452 256.363 24.4141C258.148 21.1983 260.612 18.7442 263.756 17.0517C266.9 15.3593 270.427 14.513 274.336 14.513C277.735 14.513 280.879 15.2746 283.768 16.7979C286.742 18.3211 289.249 20.6906 291.289 23.9063L303.525 16.7979C300.891 11.6358 297.024 7.74305 291.926 5.11969C286.912 2.4117 281.091 1.05772 274.463 1.05772C267.325 1.05772 260.952 2.53864 255.343 5.5005C249.82 8.46236 245.486 12.5666 242.342 17.8134C239.198 22.9755 237.626 28.9415 237.626 35.7114C237.626 42.3968 239.198 48.3628 242.342 53.6095C245.486 58.8562 249.82 63.0029 255.343 66.0493ZM0.694336 69.6036V1.81933H16.6274V69.6036H0.694336ZM206.389 69.6036V1.81933H222.322V69.6036H206.389Z" fill="black"/>
</svg>
